<svg 
 xmlns="http://www.w3.org/2000/svg"
 xmlns:xlink="http://www.w3.org/1999/xlink"
 width="17px" height="17px">
<path fill-rule="evenodd"  fill="rgb(34, 34, 34)"
 d="M1.133,4.104 L15.867,4.104 L17.000,17.000 L0.000,17.000 L1.133,4.104 ZM5.667,4.104 C5.667,4.104 5.667,4.695 5.667,5.862 C5.667,6.833 5.316,7.621 4.533,7.621 C3.751,7.621 3.400,6.833 3.400,5.862 C3.400,4.891 3.400,4.104 3.400,4.104 M13.600,4.104 C13.600,4.104 13.600,4.695 13.600,5.862 C13.600,6.833 13.249,7.621 12.467,7.621 C11.684,7.621 11.333,6.833 11.333,5.862 C11.333,4.891 11.333,4.104 11.333,4.104 M3.967,5.276 C3.967,2.366 5.646,0.000 8.500,0.000 C11.346,0.000 13.033,2.896 13.033,5.276 C13.033,6.420 11.900,6.420 11.900,5.276 C11.900,3.493 10.759,1.172 8.500,1.172 C6.220,1.172 5.100,3.488 5.100,5.276 C5.100,6.439 3.967,6.457 3.967,5.276 Z"/>
</svg>