<svg 
 xmlns="http://www.w3.org/2000/svg"
 xmlns:xlink="http://www.w3.org/1999/xlink"
 width="8px" height="15px">
<path fill-rule="evenodd"  fill="rgb(96, 96, 96)"
 d="M2.109,3.561 C2.109,3.907 2.122,5.597 2.122,5.597 L0.569,5.597 L0.569,7.762 L2.109,7.758 L2.122,14.619 L5.228,14.619 L5.228,7.762 L7.217,7.758 C7.217,7.758 7.368,6.807 7.461,5.597 C7.194,5.597 5.228,5.597 5.228,5.597 C5.228,5.597 5.178,4.097 5.178,3.862 C5.178,3.626 5.511,3.309 5.841,3.309 C6.169,3.309 6.863,3.309 7.506,3.309 C7.506,2.994 7.506,1.908 7.506,0.905 C6.648,0.905 5.672,0.905 5.242,0.905 C2.034,0.905 2.109,3.216 2.109,3.561 Z"/>
</svg>