<svg 
 xmlns="http://www.w3.org/2000/svg"
 xmlns:xlink="http://www.w3.org/1999/xlink"
 width="16px" height="15px">
<path fill-rule="evenodd"  fill="rgb(96, 96, 96)"
 d="M13.790,3.606 C13.790,4.110 13.376,4.519 12.866,4.519 L11.989,4.519 C11.478,4.519 11.065,4.110 11.065,3.606 L11.065,2.739 C11.065,2.235 11.478,1.826 11.989,1.826 L12.866,1.826 C13.376,1.826 13.790,2.235 13.790,2.739 L13.790,3.606 L13.790,3.606 ZM13.790,12.023 C13.790,12.527 13.315,12.936 12.805,12.936 L3.568,12.936 C3.058,12.936 2.548,12.527 2.548,12.023 L2.548,7.458 C2.548,6.954 3.058,6.539 3.568,6.539 C3.568,6.539 3.802,6.539 4.091,6.539 C4.127,6.539 4.161,6.543 4.193,6.549 C4.388,6.585 4.513,6.724 4.526,6.903 C4.529,6.933 4.527,6.964 4.523,6.995 C4.520,7.017 4.571,7.039 4.569,7.060 C4.553,7.190 4.592,7.323 4.592,7.457 C4.592,7.457 4.592,7.457 4.592,7.458 C4.592,9.451 6.160,11.069 8.169,11.106 C8.146,11.106 8.099,11.109 8.076,11.109 C8.099,11.109 8.109,11.106 8.131,11.106 C8.154,11.106 8.170,11.109 8.193,11.109 C10.233,11.109 11.884,9.474 11.885,7.458 C11.885,7.324 11.871,7.191 11.856,7.060 C11.854,7.039 11.854,7.016 11.851,6.995 C11.847,6.964 11.845,6.933 11.848,6.903 C11.861,6.724 11.986,6.585 12.180,6.549 C12.213,6.543 12.247,6.539 12.283,6.539 L12.805,6.539 C13.315,6.539 13.790,6.954 13.790,7.459 L13.790,12.023 L13.790,12.023 ZM6.339,7.458 C6.339,7.458 6.486,5.633 8.187,5.633 C9.888,5.633 10.034,7.458 10.034,7.458 C10.034,7.458 10.088,9.284 8.187,9.284 C6.286,9.284 6.339,7.458 6.339,7.458 ZM13.646,0.142 L2.692,0.142 C1.672,0.142 0.844,0.960 0.844,1.968 L0.844,12.794 C0.844,13.802 1.672,14.620 2.692,14.620 L13.646,14.620 C14.666,14.620 15.493,13.802 15.493,12.794 L15.493,1.968 C15.493,0.960 14.666,0.142 13.646,0.142 "/>
</svg>