<svg 
 xmlns="http://www.w3.org/2000/svg"
 xmlns:xlink="http://www.w3.org/1999/xlink"
 width="26px" height="19px">
<path fill-rule="evenodd"  fill="rgb(96, 96, 96)"
 d="M14.675,0.892 C14.094,1.245 13.450,1.501 12.765,1.639 C12.217,1.040 11.437,0.667 10.572,0.667 C8.913,0.667 7.567,2.045 7.567,3.745 C7.567,3.985 7.594,4.221 7.645,4.446 C5.148,4.318 2.933,3.092 1.451,1.230 C1.193,1.683 1.045,2.212 1.045,2.777 C1.045,3.845 1.576,4.787 2.381,5.338 C1.889,5.322 1.426,5.183 1.020,4.952 L1.020,4.990 C1.020,6.482 2.056,7.726 3.430,8.009 C3.179,8.079 2.913,8.117 2.639,8.117 C2.445,8.117 2.257,8.097 2.073,8.061 C2.456,9.284 3.565,10.174 4.880,10.200 C3.852,11.025 2.555,11.517 1.148,11.517 C0.905,11.517 0.666,11.502 0.431,11.474 C1.761,12.347 3.340,12.857 5.037,12.857 C10.565,12.857 13.587,8.167 13.587,4.099 L13.577,3.700 C14.166,3.268 14.676,2.726 15.079,2.109 C14.540,2.354 13.961,2.520 13.353,2.594 C13.974,2.213 14.449,1.609 14.675,0.892 Z"/>
</svg>